<?xml version="1.0" encoding="UTF-8" standalone="no"?>
<svg
   xmlns:dc="http://purl.org/dc/elements/1.1/"
   xmlns:cc="http://creativecommons.org/ns#"
   xmlns:rdf="http://www.w3.org/1999/02/22-rdf-syntax-ns#"
   xmlns:svg="http://www.w3.org/2000/svg"
   xmlns="http://www.w3.org/2000/svg"
   xmlns:sodipodi="http://sodipodi.sourceforge.net/DTD/sodipodi-0.dtd"
   xmlns:inkscape="http://www.inkscape.org/namespaces/inkscape"
   version="1"
   viewBox="0 0 48 48"
   enable-background="new 0 0 48 48"
   id="svg18"
   sodipodi:docname="20399268851558096223.svg"
   inkscape:export-filename="/home/fap/Downloads/20399268851558096223.png"
   inkscape:export-xdpi="64"
   inkscape:export-ydpi="64"
   width="48"
   height="48"
   inkscape:version="0.92.5 (2060ec1f9f, 2020-04-08)">
  <metadata
     id="metadata24">
    <rdf:RDF>
      <cc:Work
         rdf:about="">
        <dc:format>image/svg+xml</dc:format>
        <dc:type
           rdf:resource="http://purl.org/dc/dcmitype/StillImage" />
        <dc:title></dc:title>
        <dc:title></dc:title>
      </cc:Work>
    </rdf:RDF>
  </metadata>
  <defs
     id="defs22" />
  <sodipodi:namedview
     pagecolor="#ffffff"
     bordercolor="#666666"
     borderopacity="1"
     objecttolerance="10"
     gridtolerance="10000"
     guidetolerance="10"
     inkscape:pageopacity="0"
     inkscape:pageshadow="2"
     inkscape:window-width="1920"
     inkscape:window-height="1043"
     id="namedview20"
     showgrid="true"
     inkscape:zoom="27.812867"
     inkscape:cx="24"
     inkscape:cy="42.086634"
     inkscape:window-x="0"
     inkscape:window-y="0"
     inkscape:window-maximized="1"
     inkscape:current-layer="svg18">
    <inkscape:grid
       type="xygrid"
       id="grid3731" />
  </sodipodi:namedview>
  <g
     id="g8"
     style="fill:#d1c4e9"
     transform="translate(5)">
    <path
       d="M 33,2.8124502 H 2.2 c -1.21,0 -2.2,0.8954238 -2.2,1.9898305 v 5.9694913 c 0,1.094407 0.99,1.989831 2.2,1.989831 H 33 c 1.21,0 2.2,-0.895424 2.2,-1.989831 V 4.8022807 C 35.2,3.707874 34.21,2.8124502 33,2.8124502 Z"
       id="path2"
       inkscape:connector-curvature="0"
       style="stroke-width:1.046139" />
    <path
       d="M 33,17.81245 H 2.2 c -1.21,0 -2.2,0.9 -2.2,2 v 6 c 0,1.1 0.99,2 2.2,2 H 33 c 1.21,0 2.2,-0.9 2.2,-2 v -6 c 0,-1.1 -0.99,-2 -2.2,-2 z"
       id="path2-3"
       inkscape:connector-curvature="0"
       style="stroke-width:1.04880893" />
    <path
       d="M 33,32.81245 H 2.2 c -1.21,0 -2.2,0.9 -2.2,2 v 6 c 0,1.1 0.99,2 2.2,2 H 33 c 1.21,0 2.2,-0.9 2.2,-2 v -6 c 0,-1.1 -0.99,-2 -2.2,-2 z"
       id="path2-6"
       inkscape:connector-curvature="0"
       style="stroke-width:1.04880893" />
  </g>
  <g
     id="g14"
     transform="matrix(1.1378231,0,0,1.1378231,-9.812611,-6.4600659)"
     style="fill:#ffa000">
    <polygon
       points="39,48 37,46 37,35.4 43,35.4 43,40 42,41 43,42 43,43 42,44 43,45 43,46 41,48 "
       id="polygon10" />
    <path
       d="m 47.5,28.5 c -0.3,-0.9 -1,-1.6 -2,-1.8 C 44.2,26.4 42.2,26 40,26 c -2.2,0 -4.2,0.4 -5.5,0.6 -1,0.2 -1.7,0.9 -2,1.8 -0.2,1 -0.5,2.2 -0.5,3.6 0,1.4 0.3,2.6 0.5,3.5 0.3,0.9 1,1.6 2,1.8 1.3,0.3 3.2,0.6 5.5,0.6 2.3,0 4.2,-0.4 5.5,-0.6 1,-0.2 1.7,-0.9 2,-1.8 C 47.8,34.6 48,33.4 48,32 48,30.6 47.7,29.4 47.5,28.5 Z M 42.9,31 h -5.7 c -0.6,0 -1.1,-0.5 -1.1,-1.1 v -1.4 c 0,-0.3 1.8,-0.6 4,-0.6 2.2,0 4,0.3 4,0.6 v 1.4 C 44,30.5 43.5,31 42.9,31 Z"
       id="path12"
       inkscape:connector-curvature="0" />
  </g>
  <rect
     x="34.562489"
     y="35.753162"
     width="1.1378231"
     height="12.402271"
     id="rect16"
     style="fill:#d68600;stroke-width:1.1378231" />
</svg>
