<?xml version="1.0" encoding="UTF-8" standalone="no"?>
<svg
   xmlns:dc="http://purl.org/dc/elements/1.1/"
   xmlns:cc="http://creativecommons.org/ns#"
   xmlns:rdf="http://www.w3.org/1999/02/22-rdf-syntax-ns#"
   xmlns:svg="http://www.w3.org/2000/svg"
   xmlns="http://www.w3.org/2000/svg"
   xmlns:sodipodi="http://sodipodi.sourceforge.net/DTD/sodipodi-0.dtd"
   xmlns:inkscape="http://www.inkscape.org/namespaces/inkscape"
   width="64"
   height="64"
   viewBox="0 0 64 64"
   fill="none"
   version="1.1"
   id="svg6"
   sodipodi:docname="redact-email.svg"
   inkscape:version="0.92.5 (2060ec1f9f, 2020-04-08)"
   inkscape:export-filename="/home/fap/Downloads/170574867616313447634152.png"
   inkscape:export-xdpi="48"
   inkscape:export-ydpi="48">
  <metadata
     id="metadata12">
    <rdf:RDF>
      <cc:Work
         rdf:about="">
        <dc:format>image/svg+xml</dc:format>
        <dc:type
           rdf:resource="http://purl.org/dc/dcmitype/StillImage" />
        <dc:title></dc:title>
      </cc:Work>
    </rdf:RDF>
  </metadata>
  <defs
     id="defs10" />
  <sodipodi:namedview
     pagecolor="#ffffff"
     bordercolor="#666666"
     borderopacity="1"
     objecttolerance="10"
     gridtolerance="10"
     guidetolerance="10"
     inkscape:pageopacity="0"
     inkscape:pageshadow="2"
     inkscape:window-width="1920"
     inkscape:window-height="1043"
     id="namedview8"
     showgrid="false"
     inkscape:snap-global="false"
     inkscape:zoom="3.6875"
     inkscape:cx="64.327408"
     inkscape:cy="39.305359"
     inkscape:window-x="0"
     inkscape:window-y="0"
     inkscape:window-maximized="1"
     inkscape:current-layer="svg6">
    <inkscape:grid
       type="xygrid"
       id="grid3717" />
  </sodipodi:namedview>
  <path
     d="M59.62 11.8699C59.3551 11.6564 59.0252 11.54 58.685 11.54C58.3448 11.54 58.0149 11.6564 57.75 11.8699L55.75 13.4699L32 32.9199L8.21001 13.4999L6.21001 11.8999C5.94514 11.6864 5.6152 11.57 5.27501 11.57C4.93483 11.57 4.60488 11.6864 4.34001 11.8999C3.75996 12.4136 3.29589 13.0449 2.97864 13.7518C2.66139 14.4588 2.49823 15.2251 2.50001 15.9999V47.9999C2.50266 49.4578 3.08297 50.8552 4.11385 51.8861C5.14472 52.917 6.54214 53.4973 8.00001 53.4999H56C57.4579 53.4973 58.8553 52.917 59.8862 51.8861C60.9171 50.8552 61.4974 49.4578 61.5 47.9999V15.9999C61.5011 15.217 61.3338 14.443 61.0094 13.7304C60.685 13.0178 60.2112 12.3833 59.62 11.8699V11.8699Z"
     fill="#FFD164"
     id="path2"
     inkscape:export-xdpi="213"
     inkscape:export-ydpi="213" />
  <path
     d="M59.8601 12.11C59.7904 12.0203 59.7098 11.9397 59.6201 11.87C58.6207 10.9874 57.3334 10.5002 56.0001 10.5H8.0001C6.66679 10.5002 5.37947 10.9874 4.3801 11.87C4.29039 11.9397 4.20976 12.0203 4.1401 12.11C4.01416 12.2618 3.91962 12.4371 3.86196 12.6258C3.8043 12.8144 3.78467 13.0126 3.8042 13.2089C3.82374 13.4052 3.88205 13.5956 3.97576 13.7692C4.06947 13.9428 4.19671 14.096 4.3501 14.22L5.6101 15.22L31.0501 36C31.3218 36.2324 31.6676 36.3601 32.0251 36.3601C32.3826 36.3601 32.7284 36.2324 33.0001 36L58.3901 15.25L59.6501 14.25C59.8079 14.1258 59.939 13.9709 60.0354 13.7947C60.1319 13.6185 60.1917 13.4247 60.2113 13.2248C60.2309 13.0249 60.2099 12.8231 60.1496 12.6315C60.0892 12.4399 59.9908 12.2625 59.8601 12.11V12.11Z"
     fill="#F8B64C"
     id="path4"
     inkscape:export-xdpi="213"
     inkscape:export-ydpi="213" />
  <g
     id="g3739"
     transform="matrix(1.6247306,0,0,1.6247306,28.506336,-1655.9183)"
     inkscape:export-xdpi="60.726097"
     inkscape:export-ydpi="60.726097">
    <g
       id="g3737"
       transform="matrix(1.0607,1.0607,-1.0607,1.0607,1146.8,34.926)">
      <path
         id="path3719"
         d="m -63,1003.4 v 11.3 0.7 1 l 2,2 2,-2 v -1 -0.7 -11.3 z"
         inkscape:connector-curvature="0"
         style="fill:#ecf0f1" />
      <path
         id="path3721"
         d="m -61,1003.4 v 15 l 2,-2 v -1 -0.7 -11.3 z"
         inkscape:connector-curvature="0"
         style="fill:#bdc3c7" />
      <rect
         id="rect3723"
         x="-63"
         y="1004.4"
         width="4"
         height="11"
         style="fill:#e67e22" />
      <path
         id="path3725"
         d="m -61,1000.4 c -1.105,0 -2,0.9 -2,2 v 1 h 4 v -1 c 0,-1.1 -0.895,-2 -2,-2 z"
         inkscape:connector-curvature="0"
         style="fill:#7f8c8d" />
      <g
         id="g3731"
         transform="translate(-7,1)">
        <path
           id="path3727"
           d="m -55.406,1016 1.406,1.4 1.406,-1.4 H -54 Z"
           inkscape:connector-curvature="0"
           style="fill:#34495e" />
        <path
           id="path3729"
           d="m -54,1016 v 1.4 l 1.406,-1.4 z"
           inkscape:connector-curvature="0"
           style="fill:#2c3e50" />
      </g>
      <path
         id="path3733"
         d="m -61,1000.4 c -1.105,0 -2,0.9 -2,2 v 1 h 2 z"
         inkscape:connector-curvature="0"
         style="fill:#95a5a6" />
      <rect
         id="rect3735"
         x="-61"
         y="1004.4"
         width="2"
         height="11"
         style="fill:#d35400" />
    </g>
  </g>
</svg>
